Coordinates
version=1
nRows=24
nColumns=24
inDegrees=yes

Units are S.I. units (second, meters, Newtons, ...)
Angles are in degrees.

endheader
time	pelvis_tilt	pelvis_list	pelvis_rotation	pelvis_tx	pelvis_ty	pelvis_tz	hip_flexion_r	hip_adduction_r	hip_rotation_r	knee_angle_r	ankle_angle_r	subtalar_angle_r	mtp_angle_r	hip_flexion_l	hip_adduction_l	hip_rotation_l	knee_angle_l	ankle_angle_l	subtalar_angle_l	mtp_angle_l	lumbar_extension	lumbar_bending	lumbar_rotation
      2.00000000	     14.75200042	      1.46956386	     -4.03230648	      0.49340889	      0.95214077	      0.28461624	      5.13561364	     -5.70504724	     -1.69138987	    -66.88290907	     18.83499794	      6.61831681	     46.61221929	     -5.82540236	      5.57242397	     -7.86975518	    -18.58877778	     21.57136367	      5.75460475	     16.07121377	    -31.31396992	     -3.74027099	      7.82201993
      2.00500000	     14.89361251	      1.41943624	     -3.83621501	      0.49968134	      0.95288141	      0.28450886	      5.56275574	     -5.61008262	     -1.93719628	    -66.31209234	     19.13262505	      6.79791826	     46.40151673	     -6.64609500	      5.48809803	     -7.97637993	    -18.13393870	     21.83903098	      6.35655625	     15.95320485	    -31.43374579	     -3.55563506	      7.62180762
      2.01000000	     15.00372447	      1.39276583	     -3.75374748	      0.50578653	      0.95342223	      0.28459513	      6.07359178	     -5.54482037	     -2.10622897	    -65.76162597	     19.43262574	      6.96621529	     46.10541524	     -7.39669861	      5.42346167	     -8.19097380	    -17.74562347	     22.13329985	      7.00544611	     15.78157454	    -31.52782711	     -3.44757179	      7.43823207
      2.01500000	     15.05271107	      1.39811296	     -3.71573324	      0.51175311	      0.95378378	      0.28467566	      6.68936107	     -5.51466777	     -2.24834857	    -65.19665050	     19.69900152	      6.98458092	     45.55701522	     -8.04301388	      5.39342729	     -8.42533900	    -17.41504835	     22.43306682	      7.65015515	     15.36001764	    -31.55767093	     -3.39060832	      7.33310719
      2.02000000	     15.10909375	      1.43854981	     -3.57106485	      0.51778528	      0.95412700	      0.28452896	      7.23115992	     -5.56763516	     -2.49227920	    -64.52881478	     19.92987803	      7.19598124	     45.51090356	     -8.72892534	      5.42078790	     -8.36417554	    -17.01421049	     22.66593185	      8.05271688	     15.29267906	    -31.59506124	     -3.29243338	      7.13420560
      2.02500000	     15.28517483	      1.46436492	     -3.44190868	      0.52397157	      0.95458031	      0.28434061	      7.60221549	     -5.61759143	     -2.74760115	    -63.78995204	     20.15042119	      7.33772713	     45.42108364	     -9.61005219	      5.45142176	     -8.31543717	    -16.50061618	     22.85231249	      8.47671118	     15.20907030	    -31.74625102	     -3.19197414	      6.97500816
      2.03000000	     15.54646484	      1.47854396	     -3.30737922	      0.53016774	      0.95507729	      0.28422715	      7.84058389	     -5.62497601	     -2.94313173	    -62.97992844	     20.45647560	      7.45021078	     45.36201589	    -10.57558779	      5.47652612	     -8.26664034	    -15.98752781	     23.03312743	      8.77418242	     15.10474282	    -31.99515855	     -3.09925352	      6.75495140
      2.03500000	     15.73904625	      1.42681699	     -3.11520478	      0.53647156	      0.95545159	      0.28407121	      8.04028699	     -5.57111228	     -3.24424792	    -61.98269177	     20.86305062	      7.59298212	     45.22476192	    -11.49362793	      5.41394403	     -8.13447010	    -15.45902585	     23.23494523	      9.08905792	     15.01358988	    -32.16797708	     -2.89755744	      6.50201137
      2.04000000	     15.92763270	      1.47311686	     -2.99330337	      0.54254674	      0.95566785	      0.28386267	      8.30548736	     -5.65841285	     -3.48625321	    -61.01194031	     21.14187293	      7.92155665	     45.07411302	    -12.41696292	      5.49392429	     -7.95095400	    -14.85239025	     23.36957881	      9.26614585	     14.86127772	    -32.33914451	     -2.82124539	      6.32233441
      2.04500000	     16.05301856	      1.48565562	     -2.82573072	      0.54863510	      0.95574375	      0.28371329	      8.63857138	     -5.69854731	     -3.76918980	    -60.08028222	     21.46494847	      8.30610799	     43.82500305	    -13.23840255	      5.51729810	     -7.70989382	    -14.34899530	     23.59355952	      9.36205109	     14.00131947	    -32.44745187	     -2.69531581	      6.14748955
      2.05000000	     16.10506836	      1.53634247	     -2.67809874	      0.55468733	      0.95560060	      0.28364069	      9.07759973	     -5.75353617	     -4.00662253	    -59.14508189	     21.62688754	      8.46486136	     43.80916003	    -13.88519028	      5.54895689	     -7.63097379	    -13.98809798	     23.78719132	      9.62080012	     13.98206068	    -32.48290436	     -2.61666252	      5.95183041
      2.05500000	     16.38473382	      1.48548834	     -2.54648484	      0.56083761	      0.95582825	      0.28368063	      9.11872628	     -5.68442631	     -4.22431066	    -57.93180643	     21.70344209	      8.24630365	     43.85648189	    -14.85192423	      5.49725744	     -7.41494942	    -13.51168210	     23.92651555	      9.71919162	     13.92247608	    -32.75361615	     -2.45687748	      5.80775782
      2.06000000	     16.66806029	      1.41315715	     -2.42875841	      0.56699573	      0.95602959	      0.28364590	      9.13932795	     -5.60243728	     -4.44763408	    -56.69132833	     21.95084312	      8.27257667	     43.78346972	    -15.86505105	      5.43927280	     -7.22656009	    -12.93387629	     24.07293539	      9.72819653	     13.83998722	    -33.03389366	     -2.28229215	      5.73300836
      2.06500000	     16.82506838	      1.37674860	     -2.31957104	      0.57307124	      0.95591924	      0.28361918	      9.30608274	     -5.54580731	     -4.61998385	    -55.42250525	     22.10696778	      8.44012098	     43.57120158	    -16.64259361	      5.41249648	     -7.08728056	    -12.57548830	     24.26991908	      9.73296855	     13.73379089	    -33.18391970	     -2.13850021	      5.63819703
      2.07000000	     16.94401064	      1.40278489	     -2.19342820	      0.57913282	      0.95562924	      0.28355518	      9.53194618	     -5.57259483	     -4.86886126	    -54.16578888	     22.19323652	      8.40117716	     43.45776689	    -17.38523756	      5.44355948	     -6.84914521	    -12.17512467	     24.45824523	      9.67714448	     13.64663886	    -33.29858355	     -2.04200502	      5.43834354
      2.07500000	     17.01028469	      1.43667077	     -2.08812529	      0.58512743	      0.95527658	      0.28350327	      9.78529039	     -5.59220331	     -5.02900031	    -52.85036250	     22.22239030	      8.35809698	     43.34317524	    -18.11672005	      5.49617175	     -6.58769762	    -11.65230528	     24.57260965	      9.59111566	     13.47089516	    -33.35498142	     -1.96943870	      5.29631258
      2.08000000	     17.06478907	      1.42240075	     -2.02320441	      0.59104449	      0.95481823	      0.28353870	     10.04902216	     -5.53865265	     -5.10877366	    -51.49377494	     22.15802318	      8.30873718	     43.24133818	    -18.70242577	      5.48990143	     -6.42421046	    -11.42059565	     24.76314672	      9.54572225	     13.31467530	    -33.41276944	     -1.86656045	      5.23277048
      2.08500000	     17.20615054	      1.39419543	     -1.91787429	      0.59705380	      0.95444716	      0.28363474	     10.12763644	     -5.46428819	     -5.22946339	    -50.01322703	     22.15887610	      8.27610059	     43.13618852	    -19.41092367	      5.44055363	     -6.30552015	    -11.16255854	     24.94594805	      9.67160797	     13.15963924	    -33.56220203	     -1.74486580	      5.08339945
      2.09000000	     17.43143982	      1.31289331	     -1.88357063	      0.60320960	      0.95419334	      0.28379273	     10.07896957	     -5.32009775	     -5.31460364	    -48.46589587	     22.11317199	      8.08413639	     42.97009422	    -20.28404458	      5.36949288	     -6.27800830	    -10.75887950	     25.09731734	      9.81471487	     12.76650417	    -33.77525796	     -1.61033868	      5.09169388
      2.09500000	     17.61088935	      1.18873238	     -1.85942120	      0.60938823	      0.95387302	      0.28402600	     10.03499653	     -5.11453654	     -5.40827741	    -46.80353834	     21.90417053	      7.75309160	     42.97263039	    -21.05930055	      5.24849221	     -6.29672477	    -10.44708630	     25.36587239	      9.85867970	     12.44860885	    -33.94776803	     -1.42656281	      5.12574473
      2.10000000	     17.70788360	      1.04458261	     -1.80601007	      0.61550120	      0.95335480	      0.28450107	     10.06249178	     -4.85934968	     -5.50689489	    -45.12869368	     21.63137517	      7.41613118	     43.11484503	    -21.66017172	      5.04508737	     -6.43763822	    -10.33023166	     25.91650995	     10.36441721	     10.26104801	    -34.04209265	     -1.24897679	      5.13080062
      2.10500000	     17.84148304	      0.97953735	     -1.66819100	      0.62149311	      0.95285323	      0.28455587	     10.03398324	     -4.73262643	     -5.68323296	    -43.44295642	     21.34119738	      7.10516654	     43.12852994	    -22.33448048	      4.94673119	     -6.19686613	    -10.09589176	     26.11441613	     10.28100463	     10.20299212	    -34.18899753	     -1.08085004	      4.98145397
      2.11000000	     17.81060628	      0.96154758	     -1.52581491	      0.62734044	      0.95209931	      0.28478859	     10.19348379	     -4.64184888	     -5.80320237	    -41.76097860	     21.09261027	      6.75029825	     43.07461105	    -22.72566857	      4.85820001	     -6.05257463	    -10.05274913	     26.41748357	     10.30828992	     10.20342601	    -34.17467333	     -0.95009510	      4.82684519
      2.11500000	     18.02777399	      0.90277262	     -1.38093335	      0.63326012	      0.95164142	      0.28502337	      9.97389809	     -4.50202834	     -5.96928666	    -39.90424052	     20.85440441	      6.37535571	     43.11968543	    -23.46790277	      4.73493631	     -5.88789580	     -9.85797687	     26.64718780	     10.33801806	      9.99864273	    -34.42202536	     -0.79353085	      4.68752979
